# xmcd CD database file generated by Grip 3.2.0
# 
# Track frame offsets:
#       187
#       16647
#       35290
#       44915
#       58667
#       76495
#       84807
#       99945
#       113452
#       135267
#       150277
#       170445
#       191282
#       211967
#       223345
#       227492
# 
# Disc length: 3226 seconds
# 
# Revision: 3
# Processed by: cddbd v1.5.2PL0 Copyright (c) Steve Scherf et al.
# Submitted via: Grip 3.2.0
# 
DISCID=b90c9810
DTITLE=Tom Waits - Bone Machine
DYEAR=1992
DGENRE=Jazz
TTITLE0=Earth Died Screaming
TTITLE1=Dirt In the Ground
TTITLE2=Such A Scream
TTITLE3=All Stripped Down
TTITLE4=Who Are You
TTITLE5=The Ocean Doesn't Want Me
TTITLE6=Jesus Gonna Be Here
TTITLE7=A Little Rain
TTITLE8=In the Colosseum
TTITLE9=Goin' Out West
TTITLE10=Murder In The Red Barn
TTITLE11=Black Wings
TTITLE12=Whistle Down The Wind
TTITLE13=I Don't Wanna Grow Up
TTITLE14=Let Me Get Up On It
TTITLE15=That Feel
EXTD=YEAR: 1992
EXTT0=
EXTT1=
EXTT2=
EXTT3=
EXTT4=
EXTT5=
EXTT6=
EXTT7=
EXTT8=
EXTT9=
EXTT10=
EXTT11=
EXTT12=
EXTT13=
EXTT14=
EXTT15=
PLAYORDER=
